# xmcd
#
# Track frame offsets: 
#        150
#        43515
#        81216
#        110255
#        154950
#        175538
#        207390
#
# Disc length: 3203 seconds
#
# Revision: 0
# Processed by: cddbd v1.5.2PL0 Copyright (c) Steve Scherf et al.
# Submitted via: ExactAudioCopy v0.99pb5
#
DISCID=510c8107
DTITLE=Slaska Grupa Bluesowa - Pelnia slonca
DYEAR=2009
DGENRE=Blues
TTITLE0=01.Swing Jasia
TTITLE1=02.O moj slasku
TTITLE2=03.Nikt nie zawroci kijem Wisly
TTITLE3=04.When you left me
TTITLE4=05.Na ulicy Mariackiej
TTITLE5=06.Modlitwa Bluesmana w pociagu
TTITLE6=07.Kolowrotek
EXTD=
EXTT0=
EXTT1=
EXTT2=
EXTT3=
EXTT4=
EXTT5=
EXTT6=
PLAYORDER=
